# https://github.com/mikedh/trimesh
v -0.44000000 -0.24000001 0.04000000
v -0.44000000 -0.24000001 0.28000000
v -0.44000000 -0.16000003 -0.04000000
v -0.44000000 -0.16000003 0.35999998
v -0.44000000 0.07999998 -0.04000000
v -0.44000000 0.16000003 0.35999998
v -0.44000000 0.23999995 0.04000000
v -0.44000000 0.23999995 0.28000000
v -0.36000001 -0.39999998 0.12000000
v -0.36000001 -0.39999998 0.28000000
v -0.36000001 -0.31999999 -0.04000000
v -0.36000001 -0.24000001 -0.12000000
v -0.36000001 -0.16000003 -0.19999999
v -0.36000001 -0.16000003 0.51999998
v -0.36000001 0.07999998 -0.19999999
v -0.36000001 0.16000003 0.51999998
v -0.36000001 0.23999995 -0.12000000
v -0.36000001 0.31999999 -0.04000000
v -0.36000001 0.31999999 0.43999997
v -0.36000001 0.40000004 0.12000000
v -0.36000001 0.40000004 0.28000000
v -0.27999997 -0.47999999 0.04000000
v -0.27999997 -0.47999999 0.28000000
v -0.27999997 -0.39999998 0.43999997
v -0.27999997 -0.31999999 -0.19999999
v -0.27999997 -0.24000001 0.60000002
v -0.27999997 -0.16000003 -0.28000000
v -0.27999997 0.16000003 -0.28000000
v -0.27999997 0.23999995 0.60000002
v -0.27999997 0.31999999 -0.19999999
v -0.27999997 0.40000004 0.43999997
v -0.27999997 0.47999996 0.04000000
v -0.27999997 0.47999996 0.28000000
v -0.19999999 -0.47999999 0.43999997
v -0.19999999 -0.39999998 -0.19999999
v -0.19999999 -0.16000003 0.68000001
v -0.19999999 0.00000000 -0.35999998
v -0.19999999 0.16000003 0.68000001
v -0.19999999 0.31999999 -0.28000000
v -0.19999999 0.40000004 -0.19999999
v -0.19999999 0.47999996 0.43999997
v -0.12000000 -0.56000000 0.04000000
v -0.12000000 -0.56000000 0.35999998
v -0.12000000 -0.47999999 -0.12000000
v -0.12000000 -0.47999999 0.51999998
v -0.12000000 -0.39999998 0.60000002
v -0.12000000 -0.24000001 -0.35999998
v -0.12000000 -0.24000001 0.68000001
v -0.12000000 0.23999995 -0.35999998
v -0.12000000 0.40000004 0.60000002
v -0.12000000 0.47999996 0.51999998
v -0.12000000 0.56000000 0.04000000
v -0.12000000 0.56000000 0.35999998
v -0.03999996 -0.56000000 -0.04000000
v -0.03999996 -0.56000000 0.43999997
v -0.03999996 -0.47999999 -0.19999999
v -0.03999996 -0.39999998 -0.28000000
v -0.03999996 -0.31999999 0.68000001
v -0.03999996 0.00000000 0.75999999
v -0.03999996 0.31999999 0.68000001
v -0.03999996 0.40000004 -0.28000000
v -0.03999996 0.47999996 -0.19999999
v -0.03999996 0.56000000 -0.04000000
v -0.03999996 0.56000000 0.43999997
v 0.03999996 -0.31999999 -0.35999998
v 0.03999996 -0.07999998 0.75999999
v 0.03999996 0.16000003 0.75999999
v 0.03999996 0.31999999 -0.35999998
v 0.12000000 -0.16000003 0.75999999
v 0.12000000 0.56000000 -0.12000000
v 0.20000005 -0.16000003 0.75999999
v 0.20000005 0.16000003 0.75999999
v 0.27999997 -0.56000000 0.43999997
v 0.27999997 -0.31999999 -0.35999998
v 0.27999997 -0.07999998 0.75999999
v 0.27999997 0.07999998 0.75999999
v 0.27999997 0.31999999 -0.35999998
v 0.27999997 0.56000000 0.43999997
v 0.36000001 -0.56000000 -0.04000000
v 0.36000001 -0.56000000 0.35999998
v 0.36000001 -0.47999999 -0.19999999
v 0.36000001 -0.47999999 0.51999998
v 0.36000001 -0.39999998 -0.28000000
v 0.36000001 -0.39999998 0.60000002
v 0.36000001 -0.31999999 0.68000001
v 0.36000001 -0.24000001 -0.35999998
v 0.36000001 0.31999999 0.68000001
v 0.36000001 0.40000004 -0.28000000
v 0.36000001 0.40000004 0.60000002
v 0.36000001 0.47999996 -0.19999999
v 0.36000001 0.47999996 0.51999998
v 0.36000001 0.56000000 -0.04000000
v 0.36000001 0.56000000 0.35999998
v 0.43999994 -0.56000000 0.04000000
v 0.43999994 -0.56000000 0.28000000
v 0.43999994 -0.24000001 0.68000001
v 0.43999994 -0.16000003 -0.35999998
v 0.43999994 0.16000003 -0.35999998
v 0.43999994 0.23999995 0.68000001
v 0.43999994 0.56000000 0.04000000
v 0.43999994 0.56000000 0.28000000
v 0.51999998 -0.47999999 -0.04000000
v 0.51999998 -0.47999999 0.35999998
v 0.51999998 -0.39999998 0.51999998
v 0.51999998 -0.31999999 0.60000002
v 0.51999998 -0.24000001 -0.28000000
v 0.51999998 -0.07999998 0.68000001
v 0.51999998 0.07999998 0.68000001
v 0.51999998 0.23999995 -0.28000000
v 0.51999998 0.31999999 0.60000002
v 0.51999998 0.40000004 0.51999998
v 0.51999998 0.47999996 -0.04000000
v 0.51999998 0.47999996 0.35999998
v 0.60000002 -0.39999998 -0.04000000
v 0.60000002 -0.39999998 0.35999998
v 0.60000002 -0.31999999 -0.12000000
v 0.60000002 -0.31999999 0.51999998
v 0.60000002 -0.24000001 -0.19999999
v 0.60000002 -0.16000003 0.60000002
v 0.60000002 -0.07999998 -0.28000000
v 0.60000002 0.07999998 -0.28000000
v 0.60000002 0.16000003 0.60000002
v 0.60000002 0.23999995 -0.19999999
v 0.60000002 0.31999999 -0.12000000
v 0.60000002 0.31999999 0.51999998
v 0.60000002 0.40000004 -0.04000000
v 0.60000002 0.40000004 0.35999998
v 0.67999995 -0.31999999 0.04000000
v 0.67999995 -0.31999999 0.35999998
v 0.67999995 -0.24000001 0.43999997
v 0.67999995 -0.16000003 -0.12000000
v 0.67999995 -0.07999998 0.51999998
v 0.67999995 0.07999998 0.51999998
v 0.67999995 0.16000003 -0.12000000
v 0.67999995 0.23999995 0.43999997
v 0.67999995 0.31999999 0.04000000
v 0.67999995 0.31999999 0.35999998
v 0.75999999 -0.16000003 0.04000000
v 0.75999999 -0.16000003 0.28000000
v 0.75999999 -0.07999998 0.35999998
v 0.75999999 0.07999998 0.35999998
v 0.75999999 0.16000003 0.04000000
v 0.75999999 0.16000003 0.28000000
f 45 43 34
f 91 78 111
f 8 21 19
f 10 26 14
f 55 45 43
f 55 46 45
f 99 108 76
f 11 22 9
f 11 9 1
f 13 27 37
f 13 3 12
f 93 78 111
f 93 101 111
f 113 101 111
f 16 29 19
f 134 142 121
f 136 126 142
f 63 62 70
f 18 20 7
f 17 5 7
f 17 5 15
f 17 18 7
f 17 18 30
f 40 63 52
f 40 63 62
f 105 117 119
f 130 117 129
f 130 139 140
f 130 139 129
f 130 132 140
f 130 117 119
f 130 132 119
f 115 117 129
f 38 36 59
f 38 67 59
f 23 43 34
f 23 10 34
f 24 10 34
f 24 26 34
f 24 10 26
f 2 10 14
f 44 42 22
f 44 22 35
f 44 56 35
f 44 54 42
f 44 54 56
f 84 105 85
f 48 46 58
f 48 69 58
f 120 97 106
f 81 102 79
f 86 97 106
f 86 83 106
f 110 125 111
f 135 125 137
f 96 71 85
f 96 105 85
f 96 107 119
f 96 105 119
f 75 96 71
f 75 96 107
f 25 13 12
f 25 11 12
f 25 13 27
f 25 22 35
f 25 11 22
f 47 25 35
f 47 25 27
f 47 27 37
f 41 33 21
f 41 53 33
f 127 125 137
f 127 125 111
f 127 113 111
f 127 113 101
f 89 91 78
f 89 91 111
f 89 110 111
f 6 8 19
f 6 16 19
f 124 126 142
f 61 40 62
f 61 62 70
f 39 40 30
f 39 61 40
f 39 61 68
f 28 15 37
f 28 39 30
f 28 17 15
f 28 17 30
f 92 90 70
f 112 126 100
f 112 90 126
f 112 92 100
f 112 92 90
f 104 105 117
f 122 110 125
f 122 135 125
f 66 36 59
f 4 2 14
f 94 102 79
f 118 120 106
f 118 83 106
f 118 116 138
f 118 81 116
f 118 81 83
f 114 81 116
f 114 81 102
f 114 116 138
f 57 56 35
f 57 47 35
f 32 18 20
f 32 40 52
f 32 18 30
f 32 40 30
f 31 21 19
f 31 41 21
f 31 50 19
f 31 50 41
f 51 50 64
f 51 50 41
f 51 53 64
f 51 41 53
f 88 90 126
f 88 124 126
f 88 98 77
f 88 90 70
f 49 28 37
f 49 28 39
f 49 39 68
f 103 80 95
f 103 115 117
f 103 104 117
f 82 84 73
f 82 80 73
f 82 84 105
f 82 104 105
f 131 120 138
f 131 118 138
f 131 118 120
f 128 114 138
f 133 141 135
f 133 122 135
f 74 86 83
f 60 38 67
f 60 50 38
f 87 110 99
f 87 89 110
f 109 98 121
f 109 88 98
f 65 57 47
f 123 109 121
f 123 134 121
f 123 88 124
f 123 109 88
f 123 134 142
f 123 124 142
f 8 20 7
f 8 21 20
f 46 45 34
f 46 26 34
f 3 11 1
f 3 11 12
f 13 15 37
f 136 143 142
f 136 143 137
f 5 13 15
f 5 13 3
f 69 85 58
f 69 71 85
f 38 36 26
f 38 26 14
f 38 16 14
f 38 16 29
f 23 22 9
f 23 10 9
f 23 42 43
f 23 42 22
f 2 10 9
f 2 9 1
f 84 46 58
f 84 85 58
f 84 55 73
f 84 55 46
f 48 36 26
f 48 46 26
f 120 98 97
f 120 98 121
f 120 142 138
f 120 142 121
f 81 54 79
f 81 54 56
f 75 107 108
f 75 108 76
f 127 136 137
f 127 136 126
f 127 101 100
f 127 126 100
f 50 78 64
f 50 89 78
f 50 29 19
f 50 38 29
f 92 63 52
f 92 93 78
f 92 78 64
f 92 53 52
f 92 101 100
f 92 93 101
f 92 63 70
f 92 53 64
f 122 107 108
f 122 107 119
f 122 99 108
f 122 110 99
f 66 75 76
f 66 67 59
f 66 72 76
f 66 69 71
f 66 72 67
f 66 75 71
f 66 48 36
f 66 48 69
f 4 16 14
f 4 6 16
f 4 5 7
f 4 8 7
f 4 3 1
f 4 2 1
f 4 5 3
f 4 6 8
f 141 143 142
f 141 142 138
f 141 139 138
f 141 139 140
f 141 143 137
f 141 135 137
f 32 21 20
f 32 33 21
f 32 53 52
f 32 53 33
f 88 77 68
f 88 61 68
f 88 61 70
f 80 94 79
f 80 55 73
f 80 55 43
f 80 42 43
f 80 54 79
f 80 54 42
f 80 94 95
f 103 94 95
f 103 114 102
f 103 94 102
f 103 114 115
f 82 103 80
f 82 103 104
f 128 114 115
f 128 115 129
f 128 139 138
f 128 139 129
f 133 122 119
f 133 132 119
f 133 141 140
f 133 132 140
f 87 72 67
f 87 60 67
f 87 72 76
f 87 99 76
f 87 50 89
f 87 60 50
f 65 47 37
f 65 77 68
f 65 49 37
f 65 98 77
f 65 98 97
f 65 86 97
f 65 49 68
f 65 74 86
f 65 81 56
f 65 57 56
f 65 81 83
f 65 74 83

